<?xml version="1.0" standalone="no"?>
<!DOCTYPE svg PUBLIC "-//W3C//DTD SVG 1.0//EN" "http://www.w3.org/TR/2001/REC-SVG-20010904/DTD/svg10.dtd">
<svg xmlns="http://www.w3.org/2000/svg" xmlns:xlink="http://www.w3.org/1999/xlink" id="body_1" width="100" height="90">

<g transform="matrix(0.390625 0 0 0.390625 -0 0.07812381)">
	<g>
        <path d="M157.98009 142.48701L153.06964 151.01378C 151.59036 153.58241 148.85188 155.16547 145.88773 155.16547L145.88773 155.16547L108.270546 155.16547C 105.3064 155.16547 102.56792 153.58241 101.08863 151.01378L101.08863 151.01378L96.17773 142.48701L157.98009 142.48701zM171.72719 118.61686L163.06877 133.65088L91.089035 133.65088L82.431076 118.61686L171.72719 118.61686zM163.38693 95.27482L171.74101 109.78118L82.41727 109.78118L90.77134 95.27482L163.38693 95.27482zM145.88773 73.20863C 148.85188 73.20863 151.59036 74.79168 153.06964 77.36032L153.06964 77.36032L158.29825 86.438675L95.86003 86.438675L101.08863 77.36032C 102.56792 74.79168 105.3064 73.20863 108.270546 73.20863L108.270546 73.20863L145.88773 73.20863z" stroke="none" fill="#00435B" fill-rule="nonzero" />
        <path d="M53.522823 69.25197C 49.355755 49.04603 48.46149 33.548244 51.15504 22.294693C 52.757015 15.601726 55.685806 10.141696 60.13926 6.2023787C 64.84094 2.0434873 70.78539 0.0027139967 77.4646 0.0027139967C 88.4833 0.0027139967 100.06671 5.0273886 112.44561 14.572945C 117.49473 18.466398 122.73507 23.159346 128.17738 28.654417C 128.61055 28.096762 129.10019 27.570757 129.64572 27.084612C 145.03206 13.373253 157.98601 4.854211 169.06564 1.5695249C 175.6536 -0.38354844 181.83885 -0.5696199 187.4714 1.3259063C 193.41693 3.3267577 198.15433 7.4628077 201.49667 13.256094C 207.01277 22.817106 208.46742 35.380344 206.4109 50.892723C 205.57265 57.215717 204.13959 64.103294 202.11482 71.56608C 202.87871 71.65833 203.64452 71.8277 204.40259 72.07891C 223.92445 78.54819 237.74799 85.5051 246.11708 93.45561C 251.09648 98.18597 254.34808 103.452286 255.52353 109.28174C 256.7642 115.43474 255.55444 121.60635 252.21597 127.39533C 246.71017 136.94252 236.58664 144.47229 222.16432 150.43642C 216.37329 152.83122 209.82108 155.0001 202.5004 156.95071C 202.83443 157.70493 203.09358 158.50589 203.26688 159.34619C 207.43394 179.55212 208.32822 195.04991 205.63466 206.30345C 204.03268 212.99643 201.1039 218.45645 196.65045 222.39577C 191.94876 226.55467 186.00432 228.59544 179.3251 228.59544C 168.3064 228.59544 156.72299 223.57077 144.3441 214.0252C 139.24124 210.09032 133.94305 205.33882 128.43848 199.768C 127.8721 200.65396 127.17671 201.47745 126.35429 202.21036C 110.96794 215.9217 98.013985 224.44075 86.93436 227.72543C 80.34641 229.67851 74.16114 229.86458 68.528595 227.96906C 62.583065 225.9682 57.84568 221.83215 54.503323 216.03886C 48.987232 206.47786 47.532574 193.91461 49.589092 178.40224C 50.45765 171.8507 51.964794 164.693 54.107067 156.91734C 53.2697 156.8325 52.4289 156.65543 51.59742 156.37988C 32.075546 149.91061 18.252016 142.95369 9.882919 135.00317C 4.90352 130.27283 1.6519108 125.00651 0.47647694 119.177055C -0.7641955 113.024055 0.44555667 106.85243 3.78402 101.06345C 9.289821 91.516266 19.413364 83.986496 33.835674 78.02237C 39.799263 75.55622 46.570065 73.329636 54.156044 71.3343C 53.88576 70.672646 53.672337 69.976944 53.522823 69.25197z" stroke="none" fill="#002B3B" fill-rule="nonzero" />
        <path d="M189.64708 161.33255C 191.58812 160.98856 193.44815 162.23297 193.88152 164.14217L193.88152 164.14217L193.90535 164.25523L194.11218 165.32962C 200.82207 200.60628 196.09549 218.2446 179.93248 218.2446C 164.1186 218.2446 143.98775 203.1938 119.53993 173.0922C 118.99976 172.4271 118.70835 171.59451 118.715576 170.73773C 118.73333 168.74187 120.335 167.13069 122.31668 167.08742L122.31668 167.08742L122.43143 167.08669L123.71889 167.09581C 134.00664 167.15158 144.00787 166.79288 153.7226 166.0197C 165.1903 165.10701 177.16513 163.54462 189.64708 161.33255zM78.64587 134.6669L78.70785 134.77151L79.35382 135.89891C 84.53066 144.89903 89.92425 153.44124 95.534584 161.52553C 102.14172 171.04617 109.57177 180.68434 117.824715 190.44002C 119.101456 191.94922 118.955696 194.18938 117.515335 195.52164L117.515335 195.52164L117.42164 195.60542L116.591255 196.32014C 89.285286 219.71695 71.53746 224.38774 63.34779 210.33249C 55.331352 196.57457 58.23776 171.55882 72.06701 135.28525C 72.370895 134.48816 72.942024 133.82126 73.68289 133.39839C 75.41434 132.41014 77.60963 132.9808 78.64587 134.6669zM203.5034 82.61314L203.6153 82.64955L204.64305 83.004486C 238.34781 94.72903 251.15312 107.61383 243.05899 121.6589C 235.14268 135.39542 212.12898 145.39677 174.01788 151.66296C 173.168 151.8027 172.29602 151.6402 171.55353 151.20369C 169.7998 150.17271 169.21391 147.91528 170.24489 146.16156C 175.70346 136.87639 180.61969 127.637535 184.99359 118.445015C 189.95412 108.01961 194.6093 96.82941 198.95918 84.87442C 199.61868 83.061874 201.55602 82.07742 203.39119 82.58047L203.39119 82.58047L203.5034 82.61314zM84.44647 76.70998C 86.20019 77.74095 86.78609 79.99839 85.75511 81.752106C 80.29654 91.037285 75.3803 100.27613 71.00641 109.46866C 66.04589 119.894066 61.390694 131.08426 57.04082 143.03925C 56.36786 144.8888 54.364384 145.87608 52.496597 145.30054L52.496597 145.30054L52.384705 145.26411L51.356953 144.90918C 17.652193 133.18465 4.846877 120.29984 12.941003 106.25477C 20.857311 92.51826 43.871017 82.5169 81.98212 76.25071C 82.832 76.11097 83.70398 76.273476 84.44647 76.70998zM192.6522 18.962471C 200.66866 32.7204 197.76224 57.73615 183.933 94.00971C 183.6291 94.8068 183.05797 95.4737 182.31711 95.89657C 180.58566 96.88483 178.39038 96.31416 177.35414 94.62807L177.35414 94.62807L177.29216 94.523445L176.64618 93.39605C 171.46935 84.39592 166.07574 75.85372 160.46542 67.76943C 153.85828 58.248783 146.42824 48.610622 138.17528 38.854954C 136.89854 37.34574 137.0443 35.10559 138.48466 33.773327L138.48466 33.773327L138.57835 33.689537L139.40874 32.974815C 166.7147 9.57801 184.46254 4.907228 192.6522 18.962471zM77.448814 10.589928C 93.262695 10.589928 113.39354 25.640734 137.84137 55.742344C 138.38153 56.407433 138.67294 57.240025 138.66573 58.0968C 138.64796 60.09266 137.0463 61.703846 135.0646 61.74711L135.0646 61.74711L134.94987 61.747856L133.66241 61.738724C 123.37466 61.682953 113.37341 62.041653 103.65869 62.81483C 92.190994 63.727524 80.21617 65.28991 67.734215 67.50198C 65.793175 67.84597 63.93314 66.60157 63.499775 64.69237L63.499775 64.69237L63.47594 64.5793L63.26911 63.504913C 56.559235 28.228256 61.2858 10.589928 77.448814 10.589928z" stroke="none" fill="#FF4154" fill-rule="nonzero" />
		<g transform="matrix(1 0 0 1 80.57554 73.66907)">
            <path d="M30.718987 -1.3999E-23L62.29493 -1.3999E-23C 66.91275 -1.3999E-23 71.177895 2.4698458 73.47645 6.4749565L73.47645 6.4749565L89.33109 34.100857C 91.611855 38.07496 91.611855 42.96101 89.33109 46.935116L89.33109 46.935116L73.47645 74.56101C 71.177895 78.566124 66.91275 81.03597 62.29493 81.03597L62.29493 81.03597L30.718987 81.03597C 26.101166 81.03597 21.836021 78.566124 19.537468 74.56101L19.537468 74.56101L3.6828237 46.935116C 1.4020653 42.96101 1.4020653 38.07496 3.6828237 34.100857L3.6828237 34.100857L19.537468 6.4749565C 21.836021 2.4698458 26.101166 -1.3999E-23 30.718987 -1.3999E-23zM57.482456 8.338106C 62.102715 8.338106 66.36972 10.810539 68.667366 14.818982L68.667366 14.818982L79.72316 34.106773C 81.9994 38.077858 81.9994 42.95811 79.72316 46.929195L79.72316 46.929195L68.667366 66.21699C 66.36972 70.22543 62.102715 72.69787 57.482456 72.69787L57.482456 72.69787L35.53146 72.69787C 30.911203 72.69787 26.644196 70.22543 24.346548 66.21699L24.346548 66.21699L13.290753 46.929195C 11.014522 42.95811 11.014522 38.077858 13.290753 34.106773L13.290753 34.106773L24.346548 14.818982C 26.644196 10.810539 30.911203 8.338106 35.53146 8.338106L35.53146 8.338106L57.482456 8.338106zM52.295383 17.45791L40.718533 17.45791C 36.103016 17.45791 31.839634 19.925314 29.540226 23.927277L29.540226 23.927277L23.698004 34.095264C 21.412966 38.07222 21.412966 42.963753 23.698004 46.940704L23.698004 46.940704L29.540226 57.108696C 31.839634 61.110657 36.103016 63.57806 40.718533 63.57806L40.718533 63.57806L52.295383 63.57806C 56.9109 63.57806 61.174282 61.110657 63.47369 57.108696L63.47369 57.108696L69.31591 46.940704C 71.60095 42.963753 71.60095 38.07222 69.31591 34.095264L69.31591 34.095264L63.47369 23.927277C 61.174282 19.925314 56.9109 17.45791 52.295383 17.45791zM47.300755 26.186865C 51.91281 26.186865 56.173553 28.650604 58.47424 32.647846L58.47424 32.647846L59.3025 34.08688C 61.59397 38.068104 61.59397 42.967865 59.3025 46.949093L59.3025 46.949093L58.47424 48.388126C 56.173553 52.38537 51.91281 54.849106 47.300755 54.849106L47.300755 54.849106L45.71316 54.849106C 41.101105 54.849106 36.840363 52.38537 34.539677 48.388126L34.539677 48.388126L33.711414 46.949093C 31.419947 42.967865 31.419947 38.068104 33.711414 34.08688L33.711414 34.08688L34.539677 32.647846C 36.840363 28.650604 41.101105 26.186865 45.71316 26.186865L45.71316 26.186865L47.300755 26.186865zM46.50904 34.785538C 44.456326 34.785538 42.563267 35.878036 41.53835 37.65176C 40.5136 39.425186 40.5136 41.610783 41.53835 43.38421C 42.563267 45.157936 44.456326 46.250435 46.504875 46.250435C 48.55759 46.250435 50.45065 45.157936 51.47557 43.38421C 52.500317 41.610783 52.500317 39.425186 51.47557 37.65176C 50.45065 35.878036 48.55759 34.785538 46.50904 34.785538zM2.011248E-22 40.517986L10.3208275 40.517986" stroke="none" fill="#FFD94C" fill-rule="nonzero" />
		</g>
	</g>
</g>
</svg>